<svg width="69" height="35" viewBox="0 0 69 35" fill="none" xmlns="http://www.w3.org/2000/svg">
<path fill-rule="evenodd" clip-rule="evenodd" d="M43.0976 31.6173L42.6953 31.85C40.257 33.2605 37.4258 34.0673 34.4106 34.0673C31.2671 34.0673 28.3248 33.1905 25.8191 31.6681C23.3133 33.1905 20.371 34.0673 17.2275 34.0673C8.07765 34.0673 0.660217 26.6499 0.660217 17.5C0.660217 8.35017 8.07765 0.932739 17.2275 0.932739C20.371 0.932739 23.3133 1.80956 25.8191 3.33199C28.3248 1.80956 31.2671 0.932739 34.4106 0.932739C37.4258 0.932739 40.257 1.73955 42.6953 3.15003L43.0976 3.38274C45.6207 1.829 48.5919 0.932739 51.7725 0.932739C60.9224 0.932739 68.3398 8.35017 68.3398 17.5C68.3398 26.6499 60.9224 34.0673 51.7725 34.0673C48.5919 34.0673 45.6207 33.1711 43.0976 31.6173ZM20.8974 6.86864C19.748 6.47199 18.5137 6.25652 17.2275 6.25652C11.0179 6.25652 5.984 11.2904 5.984 17.5C5.984 17.6741 5.98795 17.8472 5.99575 18.0192L20.8974 6.86864ZM38.8292 27.8425C37.4745 28.4221 35.9818 28.7435 34.4106 28.7435C28.201 28.7435 23.1671 23.7097 23.1671 17.5C23.1671 11.2904 28.201 6.25652 34.4106 6.25652C35.9818 6.25652 37.4745 6.57797 38.8292 7.15759C36.5614 9.99204 35.2052 13.5877 35.2052 17.5C35.2052 21.4124 36.5614 25.008 38.8292 27.8425ZM18.0037 15.187C17.898 15.9432 17.8433 16.7154 17.8433 17.5C17.8433 21.4378 19.2185 25.0563 21.5125 27.8986C20.1929 28.4431 18.7464 28.7435 17.2275 28.7435C13.0488 28.7435 9.39991 26.4638 7.46127 23.0756L18.0037 15.187ZM51.7725 6.25652C45.5629 6.25652 40.529 11.2904 40.529 17.5C40.529 23.7097 45.5629 28.7435 51.7725 28.7435C57.9821 28.7435 63.016 23.7097 63.016 17.5C63.016 11.2904 57.9821 6.25652 51.7725 6.25652Z" fill="#40A47C"/>
</svg>
