<svg width="23" height="19" viewBox="0 0 23 19" fill="none" xmlns="http://www.w3.org/2000/svg">
<path d="M0 2C0 1.62704 0.148158 1.26935 0.411881 1.00563C0.675604 0.741908 1.03329 0.59375 1.40625 0.59375H21.0938C21.4667 0.59375 21.8244 0.741908 22.0881 1.00563C22.3518 1.26935 22.5 1.62704 22.5 2C22.5 2.37296 22.3518 2.73065 22.0881 2.99437C21.8244 3.25809 21.4667 3.40625 21.0938 3.40625H1.40625C1.03329 3.40625 0.675604 3.25809 0.411881 2.99437C0.148158 2.73065 0 2.37296 0 2ZM0 9.5C0 9.12704 0.148158 8.76935 0.411881 8.50563C0.675604 8.24191 1.03329 8.09375 1.40625 8.09375H21.0938C21.4667 8.09375 21.8244 8.24191 22.0881 8.50563C22.3518 8.76935 22.5 9.12704 22.5 9.5C22.5 9.87296 22.3518 10.2306 22.0881 10.4944C21.8244 10.7581 21.4667 10.9062 21.0938 10.9062H1.40625C1.03329 10.9062 0.675604 10.7581 0.411881 10.4944C0.148158 10.2306 0 9.87296 0 9.5ZM0 17C0 16.627 0.148158 16.2694 0.411881 16.0056C0.675604 15.7419 1.03329 15.5938 1.40625 15.5938H21.0938C21.4667 15.5938 21.8244 15.7419 22.0881 16.0056C22.3518 16.2694 22.5 16.627 22.5 17C22.5 17.373 22.3518 17.7306 22.0881 17.9944C21.8244 18.2581 21.4667 18.4062 21.0938 18.4062H1.40625C1.03329 18.4062 0.675604 18.2581 0.411881 17.9944C0.148158 17.7306 0 17.373 0 17Z" fill="#00205C"/>
</svg>
