<svg width="22" height="23" viewBox="0 0 22 23" fill="none" xmlns="http://www.w3.org/2000/svg">
<path fill-rule="evenodd" clip-rule="evenodd" d="M7 8.5C7 10.7091 8.79086 12.5 11 12.5C13.2091 12.5 15 10.7091 15 8.5C15 6.29086 13.2091 4.5 11 4.5C8.79086 4.5 7 6.29086 7 8.5ZM9 8.5C9 9.60457 9.89543 10.5 11 10.5C12.1046 10.5 13 9.60457 13 8.5C13 7.39543 12.1046 6.5 11 6.5C9.89543 6.5 9 7.39543 9 8.5Z" fill="#00205C"/>
<path fill-rule="evenodd" clip-rule="evenodd" d="M11 0.5C17.0751 0.5 22 5.42487 22 11.5C22 17.5751 17.0751 22.5 11 22.5C4.92487 22.5 0 17.5751 0 11.5C0 5.42487 4.92487 0.5 11 0.5ZM20 11.5C20 13.5902 19.2875 15.514 18.092 17.0417C16.4476 14.8889 13.8537 13.5 10.9355 13.5C8.05517 13.5 5.49084 14.8531 3.8435 16.9583C2.68697 15.4443 2 13.5524 2 11.5C2 6.52944 6.02944 2.5 11 2.5C15.9706 2.5 20 6.52944 20 11.5ZM11 20.5C13.1502 20.5 15.1243 19.7459 16.6723 18.4878C15.4065 16.6812 13.3089 15.5 10.9355 15.5C8.59156 15.5 6.51667 16.6521 5.24623 18.4209C6.80613 19.7191 8.81187 20.5 11 20.5Z" fill="#00205C"/>
</svg>
